<?xml version="1.0" encoding="UTF-8" standalone="no"?>
<!-- Created with Inkscape (http://www.inkscape.org/) -->

<svg
   xmlns:dc="http://purl.org/dc/elements/1.1/"
   xmlns:cc="http://creativecommons.org/ns#"
   xmlns:rdf="http://www.w3.org/1999/02/22-rdf-syntax-ns#"
   xmlns:svg="http://www.w3.org/2000/svg"
   xmlns="http://www.w3.org/2000/svg"
   xmlns:sodipodi="http://sodipodi.sourceforge.net/DTD/sodipodi-0.dtd"
   xmlns:inkscape="http://www.inkscape.org/namespaces/inkscape"
   width="84.520798mm"
   height="90.347755mm"
   viewBox="0 0 84.520798 90.347755"
   version="1.1"
   id="svg8"
   inkscape:version="0.92.4 (5da689c313, 2019-01-14)"
   sodipodi:docname="icona.svg"
   inkscape:export-filename="C:\Users\gabri\Desktop\icona.png"
   inkscape:export-xdpi="180.31065"
   inkscape:export-ydpi="180.31065">
  <defs
     id="defs2" />
  <sodipodi:namedview
     id="base"
     pagecolor="#ffffff"
     bordercolor="#666666"
     borderopacity="1.0"
     inkscape:pageopacity="0.0"
     inkscape:pageshadow="2"
     inkscape:zoom="0.49497475"
     inkscape:cx="-136.1543"
     inkscape:cy="46.897179"
     inkscape:document-units="mm"
     inkscape:current-layer="layer1"
     showgrid="false"
     inkscape:window-width="1920"
     inkscape:window-height="1017"
     inkscape:window-x="-8"
     inkscape:window-y="-8"
     inkscape:window-maximized="1" />
  <metadata
     id="metadata5">
    <rdf:RDF>
      <cc:Work
         rdf:about="">
        <dc:format>image/svg+xml</dc:format>
        <dc:type
           rdf:resource="http://purl.org/dc/dcmitype/StillImage" />
        <dc:title></dc:title>
      </cc:Work>
    </rdf:RDF>
  </metadata>
  <g
     inkscape:label="Livello 1"
     inkscape:groupmode="layer"
     id="layer1"
     transform="translate(-76.024432,-71.412232)">
    <path
       style="fill:none;stroke:#000000;stroke-width:1;stroke-linecap:round;stroke-linejoin:round;stroke-miterlimit:4;stroke-dasharray:none;stroke-opacity:1"
       d="m 139.24742,73.028135 c -2.13816,1.603618 -37.15046,42.763115 -37.15046,42.763115 -4.769122,-2.69493 -41.362681,-10.43523 -17.641809,23.18307"
       id="path10"
       inkscape:connector-curvature="0"
       sodipodi:nodetypes="ccc" />
    <path
       style="fill:none;stroke:#000000;stroke-width:1;stroke-linecap:round;stroke-linejoin:round;stroke-miterlimit:4;stroke-dasharray:none;stroke-opacity:1"
       d="m 145.19219,77.903177 c -2.13816,1.603627 -37.15049,42.763163 -37.15049,42.763163 3.83595,6.09403 10.9204,43.52314 -23.586549,18.30798"
       id="path10-5"
       inkscape:connector-curvature="0"
       sodipodi:nodetypes="ccc" />
    <path
       style="fill:none;stroke:#000000;stroke-width:1;stroke-linecap:round;stroke-linejoin:round;stroke-miterlimit:4;stroke-dasharray:none;stroke-opacity:1"
       d="m 139.24742,73.028134 c 0.21887,-0.325464 0.65541,-0.408344 0.95313,-0.652513 0.33313,-0.162557 0.64702,-0.408754 1.0387,-0.41299 0.31529,-0.04181 0.6285,-0.05736 0.94805,-0.04759 0.34408,0.0071 0.69196,-0.01434 1.03364,0.01082 0.59046,0.157527 1.14997,0.42731 1.65514,0.768187 0.34267,0.323175 0.76479,0.60446 0.96126,1.04665 0.10467,0.365275 0.0763,0.752832 0.13302,1.123414 0.0173,0.21302 -0.0505,0.723256 -0.0633,0.740245 -0.0228,-0.120921 -0.039,0.364502 -0.0807,0.492654 -0.0192,0.155455 -0.0589,0.439849 -0.0158,0.116781 0.0679,-0.131466 -0.0912,0.398238 -0.14804,0.532782 -0.0792,0.200801 0.10231,-0.300678 0.10231,-0.300678 -0.10788,0.14423 -0.21539,0.84829 -0.24708,0.887323 0.10349,-0.229138 -0.16129,0.19967 -0.26392,0.389725 -0.003,0.0184 -0.42739,0.51944 -0.0624,0.180471"
       id="path248"
       inkscape:connector-curvature="0"
       sodipodi:nodetypes="cccccccccccccccc" />
    <path
       style="fill:none;stroke:#000000;stroke-width:1;stroke-linecap:round;stroke-linejoin:round;stroke-miterlimit:4;stroke-dasharray:none;stroke-opacity:1"
       d="m 143.2766,79.8763 c 1.84263,1.708767 3.68527,3.417535 5.5279,5.126302 0.15557,0.747022 0.33658,1.564931 0.0312,2.2983 -0.24489,0.555268 -0.9222,0.669661 -1.46356,0.613795 -0.35363,-0.07156 -0.79324,-0.0099 -1.08205,-0.243632 -1.83133,-1.669063 -3.66267,-3.338126 -5.494,-5.007189"
       id="path252"
       inkscape:connector-curvature="0" />
    <path
       style="fill:none;stroke:#000000;stroke-width:1;stroke-linecap:round;stroke-linejoin:round;stroke-miterlimit:4;stroke-dasharray:none;stroke-opacity:1"
       d="m 139.26987,84.242959 c 1.84263,1.708767 3.68527,3.417535 5.5279,5.126302 0.15557,0.747022 0.33658,1.564931 0.0312,2.2983 -0.24489,0.555268 -0.9222,0.669661 -1.46356,0.613795 -0.35363,-0.07156 -0.79324,-0.0099 -1.08205,-0.243632 -1.83133,-1.669063 -3.66267,-3.338126 -5.494,-5.007189"
       id="path252-9"
       inkscape:connector-curvature="0" />
    <flowRoot
       xml:space="preserve"
       id="flowRoot302"
       style="font-style:normal;font-weight:normal;font-size:40px;line-height:1.25;font-family:sans-serif;letter-spacing:0px;word-spacing:0px;fill:#000000;fill-opacity:1;stroke:none"
       transform="scale(0.26458333)"><flowRegion
         id="flowRegion304"><rect
           id="rect306"
           width="81.428574"
           height="65"
           x="172.85715"
           y="340.37683" /></flowRegion><flowPara
         id="flowPara308" /></flowRoot>    <flowRoot
       xml:space="preserve"
       id="flowRoot310"
       style="font-style:normal;font-variant:normal;font-weight:normal;font-stretch:normal;font-size:40px;line-height:1.25;font-family:Castellar;-inkscape-font-specification:'Castellar, Normal';font-variant-ligatures:normal;font-variant-caps:normal;font-variant-numeric:normal;font-feature-settings:normal;text-align:start;letter-spacing:0px;word-spacing:0px;writing-mode:lr-tb;text-anchor:start;fill:#000000;fill-opacity:1;stroke:none"
       transform="scale(0.26458333)"><flowRegion
         id="flowRegion312"
         style="font-style:normal;font-variant:normal;font-weight:normal;font-stretch:normal;font-size:40px;font-family:Castellar;-inkscape-font-specification:'Castellar, Normal';font-variant-ligatures:normal;font-variant-caps:normal;font-variant-numeric:normal;font-feature-settings:normal;text-align:start;writing-mode:lr-tb;text-anchor:start"><rect
           id="rect314"
           width="96.428574"
           height="89.285713"
           x="157.14285"
           y="310.37683"
           style="font-style:normal;font-variant:normal;font-weight:normal;font-stretch:normal;font-size:40px;font-family:Castellar;-inkscape-font-specification:'Castellar, Normal';font-variant-ligatures:normal;font-variant-caps:normal;font-variant-numeric:normal;font-feature-settings:normal;text-align:start;writing-mode:lr-tb;text-anchor:start" /></flowRegion><flowPara
         id="flowPara318"></flowPara></flowRoot>    <text
       xml:space="preserve"
       style="font-style:normal;font-variant:normal;font-weight:normal;font-stretch:extra-condensed;font-size:22.89386749px;line-height:1.25;font-family:Algerian;-inkscape-font-specification:'Algerian, Extra-Condensed';font-variant-ligatures:normal;font-variant-caps:normal;font-variant-numeric:normal;font-feature-settings:normal;text-align:start;letter-spacing:0px;word-spacing:0px;writing-mode:lr-tb;text-anchor:start;fill:#000000;fill-opacity:1;stroke:none;stroke-width:0.57234257"
       x="158.15283"
       y="28.200342"
       id="text322"
       transform="matrix(0.66761228,0.68412774,-0.74871411,0.73063951,0,0)"><tspan
         sodipodi:role="line"
         id="tspan320"
         x="158.15283"
         y="28.200342"
         style="font-style:normal;font-variant:normal;font-weight:normal;font-stretch:extra-condensed;font-size:22.89386749px;font-family:Algerian;-inkscape-font-specification:'Algerian, Extra-Condensed';font-variant-ligatures:normal;font-variant-caps:normal;font-variant-numeric:normal;font-feature-settings:normal;text-align:start;writing-mode:lr-tb;text-anchor:start;stroke-width:0.57234257">A</tspan></text>
    <path
       style="fill:#d40000;fill-rule:evenodd;stroke-width:1;stroke-linecap:round;stroke-linejoin:round;stroke-miterlimit:4;stroke-dasharray:none"
       id="path5042"
       d="m 133.0779,79.236122 c -0.77748,0.125555 -1.52359,0.391356 -2.24273,0.705577 -0.36464,0.156766 -0.70773,0.356942 -1.05332,0.550633 -0.1116,0.06255 -0.44554,0.251738 -0.33473,0.18779 2.42441,-1.399055 2.67898,-1.553749 1.73013,-0.986451 -0.57721,0.320548 -1.05158,0.779254 -1.51547,1.241285 -0.39871,0.418319 -0.76893,0.862449 -1.0654,1.359119 -0.32557,0.574546 -0.55165,1.194308 -0.7205,1.830631 -0.19855,0.664538 -0.27328,1.352487 -0.37172,2.035712 -0.10621,0.559846 -0.16055,1.126054 -0.19132,1.694384 -0.0268,0.653833 -0.0241,1.308436 -0.026,1.962695 -0.002,0.730261 -0.001,1.460521 -0.001,2.190785 -0.008,0.871341 0.0815,1.739899 0.12769,2.609503 0.0352,0.947804 0.0656,1.89707 0.0335,2.845244 -0.004,0.882396 -0.25079,1.726827 -0.48614,2.568431 -0.31956,0.95482 -0.76155,1.86103 -1.21902,2.75573 -0.46974,0.94406 -0.97393,1.87017 -1.48058,2.79473 0,0 -2.46555,1.10512 -2.46555,1.10512 v 0 c 0.49767,-0.91974 0.99868,-1.83802 1.45849,-2.77754 0.45273,-0.87834 0.88162,-1.76802 1.22164,-2.69714 0.23654,-0.82323 0.49567,-1.650412 0.51982,-2.51375 0.0505,-0.939374 0.005,-1.88087 -0.0247,-2.820488 -0.0432,-0.872228 -0.13452,-1.742236 -0.14704,-2.615305 -7.9e-4,-0.729351 -0.002,-1.458699 -0.005,-2.188046 -0.002,-0.656656 -0.002,-1.313376 0.0131,-1.969908 0.0203,-0.578204 0.0648,-1.155216 0.17719,-1.723861 0.12613,-0.686353 0.16798,-1.389261 0.373,-2.061136 0.15093,-0.654552 0.36468,-1.292338 0.67395,-1.890482 0.27625,-0.528751 0.64377,-0.986009 1.03967,-1.430816 0.46579,-0.472946 0.93016,-0.964187 1.50218,-1.309926 1.43641,-0.864851 2.87107,-1.755799 4.39914,-2.452304 0.74834,-0.297272 1.51523,-0.535424 2.3041,-0.700489 0,0 -2.22357,1.700273 -2.22357,1.700273 z"
       inkscape:connector-curvature="0" />
    <path
       style="fill:#d40000;fill-rule:evenodd;stroke-width:1;stroke-linecap:round;stroke-linejoin:round;stroke-miterlimit:4;stroke-dasharray:none"
       id="path5044"
       d="m 111.72784,103.6228 c -1.10211,0.69535 -2.23878,1.32782 -3.36883,1.97953 -0.091,0.0525 -0.36653,0.20546 -0.2753,0.15338 0.70141,-0.40039 1.40391,-0.79887 2.10587,-1.19831 -0.46874,0.30854 -0.85115,0.71437 -1.19904,1.14982 -0.25949,0.32497 -0.52777,0.63987 -0.75704,0.98755 -0.28892,0.41565 -0.57615,0.83044 -0.81385,1.27792 -0.19313,0.40386 -0.29415,0.84399 -0.40215,1.27651 -0.0844,0.46003 -0.17209,0.92005 -0.2373,1.3834 -0.064,0.53755 -0.0754,1.07962 -0.0823,1.62038 -0.016,0.49309 0.0816,0.97931 0.12915,1.46828 0.0212,0.50604 0.1034,1.0054 0.16371,1.5075 0.0521,0.54713 0.0596,1.09521 0.12623,1.64091 0.0637,0.57225 0.21041,1.13081 0.35717,1.68623 0.2255,0.7098 0.41616,1.42996 0.64296,2.13926 0.29167,0.78891 0.49693,1.60553 0.74881,2.40722 0.28353,0.79107 0.5866,1.57478 0.84235,2.37561 0.26148,0.78477 0.44791,1.59315 0.59462,2.40657 0.16697,0.75577 0.26082,1.52215 0.31289,2.29344 0.0954,0.81088 0.15428,1.6241 0.18918,2.43962 0.0284,0.99473 0.0274,1.99008 0.0287,2.98515 0.0441,1.09892 -0.0611,2.18866 -0.21819,3.27446 -0.15606,1.1843 -0.42437,2.34924 -0.67442,3.51614 -0.26941,1.2058 -0.60165,2.39671 -0.96196,3.57817 -0.35765,1.08589 -0.84985,2.11739 -1.37353,3.131 -0.55988,1.10569 -1.3013,2.09654 -2.06264,3.06827 -0.75822,0.97605 -1.59952,1.88148 -2.45548,2.77135 -1.03045,1.04513 -2.14045,2.01278 -3.256467,2.96543 -1.829054,1.57249 -3.946721,2.74307 -6.079554,3.8524 0,0 2.113341,-1.69719 2.113341,-1.69719 v 0 c 1.089205,-0.57604 0.916958,-0.4955 -1.113467,0.68489 -0.221438,0.12874 0.444476,-0.25502 0.660937,-0.39196 0.564105,-0.35687 0.775031,-0.52326 1.300834,-0.93647 0.211344,-0.16608 0.419198,-0.33656 0.628796,-0.50485 1.114962,-0.93455 2.206638,-1.90613 3.24041,-2.92914 0.85501,-0.88564 1.70245,-1.78071 2.46748,-2.74668 0.7556,-0.95914 1.50997,-1.92478 2.07002,-3.01622 0.52536,-1.00265 1.02439,-2.02025 1.40025,-3.0901 0.37332,-1.17146 0.69516,-2.35894 0.9734,-3.55659 0.25194,-1.15983 0.51657,-2.31911 0.67453,-3.49645 0.16297,-1.07151 0.27679,-2.14792 0.22775,-3.23379 -0.002,-0.98963 -0.002,-1.9795 -0.0367,-2.96866 -0.033,-0.81234 -0.0942,-1.62231 -0.19645,-2.42913 -0.0452,-0.76248 -0.1278,-1.52155 -0.29649,-2.26788 -0.13576,-0.80367 -0.31565,-1.60283 -0.57045,-2.37756 -0.25276,-0.80169 -0.56255,-1.58347 -0.84433,-2.37508 -0.25333,-0.80019 -0.45261,-1.61767 -0.75258,-2.40276 -0.23295,-0.71088 -0.42135,-1.43522 -0.66014,-2.14434 -0.15955,-0.5636 -0.31602,-1.1326 -0.38458,-1.71552 -0.0735,-0.54648 -0.0857,-1.09385 -0.12913,-1.64326 -0.0563,-0.50416 -0.15638,-1.0026 -0.16949,-1.51077 -0.0468,-0.49871 -0.14391,-0.9949 -0.14075,-1.4962 0.007,-0.55026 0.0207,-1.10056 0.07,-1.64899 0.0519,-0.47199 0.14804,-0.93566 0.21335,-1.40522 0.10157,-0.45315 0.22283,-0.90606 0.38601,-1.3405 0.2183,-0.46108 0.48826,-0.89026 0.7895,-1.30177 0.22907,-0.35436 0.45828,-0.70527 0.75721,-1.00701 0.3287,-0.46865 0.71944,-0.89418 1.17687,-1.24044 0.87826,-0.51926 1.75544,-1.04034 2.63476,-1.5578 0.0904,-0.0532 0.36494,-0.20715 0.27441,-0.15415 -0.69804,0.40869 -1.39415,0.82079 -2.09696,1.22122 -0.16998,0.0968 0.32394,-0.21983 0.49201,-0.31995 0.0674,-0.0401 0.1368,-0.0769 0.2052,-0.11531 0,0 2.61088,-1.02156 2.61088,-1.02156 z"
       inkscape:connector-curvature="0" />
    <path
       style="fill:#d40000;fill-rule:evenodd;stroke-width:1;stroke-linecap:round;stroke-linejoin:round;stroke-miterlimit:4;stroke-dasharray:none"
       id="path5052"
       d="m 147.02338,77.895788 c 0.63564,0.02846 1.26645,0.0075 1.89878,-0.05494 0.61363,-0.05696 1.23127,-0.126058 1.82993,-0.276667 0.59699,-0.113934 1.1673,-0.322212 1.74041,-0.518149 0.51125,-0.124465 0.97339,-0.359577 1.43928,-0.592966 0.0736,-0.03663 0.14845,-0.07098 0.22091,-0.109878 0.15741,-0.08449 0.62015,-0.355016 0.46532,-0.265893 -3.8772,2.231818 -2.42482,1.415796 -1.59276,0.891492 0.88345,-0.509971 1.7669,-1.019942 2.65035,-1.529914 0.0918,-0.05034 0.36587,-0.203475 0.2753,-0.151018 -0.70333,0.407328 -1.40852,0.811424 -2.11362,1.215673 -0.0908,0.05208 0.18098,-0.105342 0.27081,-0.159145 0.17225,-0.103176 0.34281,-0.209153 0.51432,-0.313544 0.58867,-0.366884 1.16679,-0.75057 1.74747,-1.129967 0.61341,-0.365474 1.15406,-0.812924 1.63874,-1.334206 0,0 2.53661,-1.068472 2.53661,-1.068472 v 0 c -0.46412,0.547711 -0.97913,1.033478 -1.60467,1.396381 -0.56823,0.389149 -1.15673,0.748284 -1.72489,1.137936 -1.14606,0.655947 -2.27989,1.338876 -3.42473,1.997278 -0.60962,0.350594 -3.23413,1.688381 1.8194,-1.068049 -1.23975,0.819291 -2.53655,1.554835 -3.85765,2.234645 -0.46444,0.23259 -0.95274,0.402299 -1.44942,0.553304 -0.57899,0.198515 -1.16377,0.379638 -1.76547,0.497203 -0.60911,0.113498 -1.22284,0.198133 -1.84113,0.242128 -0.64558,0.05456 -1.2913,0.04475 -1.93871,0.05269 0,0 2.26542,-1.645922 2.26542,-1.645922 z"
       inkscape:connector-curvature="0" />
    <path
       style="fill:#ffd42a;fill-rule:evenodd;stroke-width:2.69966269;stroke-linecap:round;stroke-linejoin:round;stroke-miterlimit:4;stroke-dasharray:none"
       d="m 383.18976,555.14352 c -10.78863,-1.60069 -27.61139,-8.80875 -42.85714,-18.36304 -12.64312,-7.92326 -18.79211,-12.51465 -21.41633,-15.99137 -8.29494,-10.98962 -20.32622,-33.39747 -24.26685,-45.19615 -3.03583,-9.08965 -3.81553,-20.16773 -1.84374,-26.19614 3.66313,-11.19939 13.65286,-17.26873 31.73202,-19.27904 14.23416,-1.58276 37.79707,1.37007 52.71258,6.60579 9.85672,3.45996 9.52203,3.4789 13.05309,-0.73856 1.687,-2.01494 3.16964,-3.56116 3.29476,-3.43605 0.12511,0.12512 0.60413,3.91477 1.0645,8.42145 0.81539,7.98226 4.0432,20.15535 8.9911,33.90826 4.5701,12.70276 6.97012,35.15499 5.34327,49.98619 -0.96189,8.76902 -4.60534,25.70845 -5.85288,27.21164 -2.15018,2.59081 -12.47161,4.17724 -19.95438,3.06702 z m -15.10721,-44.84186 4.51695,-8.86272 2.69605,3.13036 c 2.68061,3.11241 2.69917,3.12022 3.23755,1.36272 0.29782,-0.9722 1.3302,-3.45548 2.29416,-5.51839 0.96397,-2.06291 1.61901,-4.31291 1.45566,-5 -0.19318,-0.81253 -1.1274,0.4757 -2.67235,3.68502 l -2.37535,4.93426 -1.48702,-1.74294 c -3.70231,-4.3395 -3.45711,-4.51912 -9.06007,6.63687 -2.82793,5.63065 -5.27692,9.84762 -5.4422,9.37103 -0.41193,-1.18777 9.95161,-20.89207 10.99617,-20.90712 0.46093,-0.007 1.80238,0.79935 2.981,1.79109 l 2.14295,1.80317 2.19757,-4.32453 c 1.20866,-2.37849 2.19757,-4.47564 2.19757,-4.66031 0,-0.18468 -0.96237,-0.33578 -2.13859,-0.33578 h -2.13858 l 3.73,-7.5 c 3.6755,-7.39043 3.76675,-7.50016 6.24573,-7.51094 1.38365,-0.006 2.98886,-0.31015 3.56713,-0.67586 1.75251,-1.1083 -1.03427,-1.7375 -4.48641,-1.01294 -2.94454,0.61802 -3.06175,0.76096 -7.15672,8.72705 -2.28974,4.45431 -4.31821,7.94371 -4.50771,7.75421 -0.62572,-0.62572 8.20773,-17.44516 9.40296,-17.9038 0.64375,-0.24704 2.10845,-0.44915 3.2549,-0.44915 1.14643,0 2.08443,-0.24778 2.08443,-0.55061 0,-0.69925 -12.34904,-13.02082 -13.04984,-13.02082 -0.28687,0 -0.52159,1.39948 -0.52159,3.10995 v 3.10994 l -6.88905,3.14006 c -3.78898,1.72703 -7.1347,3.23743 -7.43494,3.35646 -0.30023,0.11902 -0.76141,-0.76491 -1.02484,-1.96429 -0.6801,-3.09645 -1.79402,-2.70261 -1.79402,0.6343 0,1.54824 -0.32143,3.01364 -0.71429,3.25644 -0.43721,0.27021 -0.71429,-0.85139 -0.71429,-2.89141 0,-2.89191 -0.16538,-3.26551 -1.25,-2.82375 -0.6875,0.28002 -2.60594,0.98403 -4.26321,1.56447 -2.8475,0.99732 -2.95961,1.14046 -2.03866,2.60302 2.4688,3.92066 2.24877,4.345 -3.68735,7.11114 -10.1206,4.71605 -15.12294,5.87754 -20.76991,4.82257 -1.84079,-0.34389 -3.49161,-0.48054 -3.66849,-0.30366 -0.17688,0.17688 2.9568,3.61119 6.96373,7.6318 4.26173,4.27629 7.28532,7.88991 7.28532,8.70701 0,0.97536 -2.06501,-0.80628 -6.84425,-5.90506 -6.54758,-6.98533 -8.53448,-8.53497 -8.02955,-6.26243 0.2664,1.199 14.94131,16.27402 15.39776,15.81758 0.16673,-0.16673 0.78907,-2.43348 1.38299,-5.03722 0.82934,-3.63585 1.6409,-5.27896 3.49838,-7.08291 2.40253,-2.33331 9.42774,-6.57046 9.97933,-6.01888 0.15851,0.15852 -0.30771,2.78947 -1.03606,5.84656 l -1.32427,5.55835 1.52355,-0.4379 c 3.08916,-0.8879 11.40055,-1.356 10.94341,-0.61634 -0.24583,0.39776 -2.39367,0.92667 -4.77298,1.17536 -2.37931,0.24869 -5.12143,0.65179 -6.09359,0.89579 -2.49207,0.62547 -2.2396,1.99031 0.27513,1.48737 1.12349,-0.2247 3.72107,-0.63119 5.7724,-0.90331 l 3.7297,-0.49476 -2.92323,5.81402 -2.92323,5.81401 h -4.08699 -4.08699 l 7.66639,7.69024 c 4.21651,4.22963 7.66639,8.23009 7.66639,8.88991 0,0.7155 -2.78215,-1.66747 -6.89361,-5.90452 -3.79148,-3.90731 -7.16648,-7.1042 -7.5,-7.1042 -1.75395,0 0.16209,2.53458 7.42932,9.82766 l 8.03572,8.06429 0.36649,-6.2674 c 0.34929,-5.9732 0.57853,-6.68345 4.88344,-15.13013 z"
       id="path5062"
       inkscape:connector-curvature="0"
       transform="scale(0.26458333)" />
    <path
       style="fill:#ffd42a;fill-rule:evenodd;stroke-width:2.69966269;stroke-linecap:round;stroke-linejoin:round;stroke-miterlimit:4;stroke-dasharray:none"
       d="m 406.52553,447.90551 c -1.388,-5.52566 -2.80497,-19.52041 -2.49296,-24.62187 l 0.22862,-3.7379 33.57143,-39.2085 c 18.46428,-21.56468 33.63473,-39.15862 33.7121,-39.09763 0.0774,0.061 0.22318,8.13686 0.32404,17.9464 0.12711,12.36354 -0.0672,18.28958 -0.63346,19.31548 -1.00288,1.81709 -62.20489,73.43805 -63.00152,73.72682 -0.31375,0.11374 -1.08246,-1.83152 -1.70825,-4.3228 z"
       id="path5064"
       inkscape:connector-curvature="0"
       transform="scale(0.26458333)" />
    <path
       style="fill:#ffd42a;fill-rule:evenodd;stroke-width:2.69966269;stroke-linecap:round;stroke-linejoin:round;stroke-miterlimit:4;stroke-dasharray:none"
       d="m 481.63528,353.62632 c -0.19252,-7.16835 -0.16259,-15.66785 0.0665,-18.88777 l 0.41654,-5.85441 13.27922,-15.21702 c 32.96256,-37.77271 35.19647,-39.88027 42.23275,-39.84419 3.86605,0.0198 8.40896,2.0584 10.50951,4.71601 1.3963,1.76659 1.56162,2.58615 1.18142,5.85672 -0.65469,5.63186 -2.04084,8.29163 -7.07445,13.57461 -4.63654,4.86623 -15.53135,16.96157 -22.68497,25.18467 -7.15762,8.22771 -32.38023,37.3969 -35.00999,40.48799 l -2.56651,3.01676 z"
       id="path5068"
       inkscape:connector-curvature="0"
       transform="scale(0.26458333)" />
    <path
       style="fill:#ffd42a;fill-rule:evenodd;stroke-width:2.69966269;stroke-linecap:round;stroke-linejoin:round;stroke-miterlimit:4;stroke-dasharray:none"
       d="m 550.57646,326.07459 c -2.68769,-2.3331 -7.21323,-6.44949 -10.05677,-9.14753 l -5.17007,-4.90553 3.1683,-3.50927 3.1683,-3.50928 9.33205,8.77733 c 5.37959,5.05982 9.52302,9.53823 9.78295,10.57387 0.76847,3.06181 -0.54226,5.4943 -3.0948,5.74345 -1.86558,0.1821 -3.06602,-0.49525 -7.12996,-4.02304 z"
       id="path5070"
       inkscape:connector-curvature="0"
       transform="scale(0.26458333)" />
    <path
       style="fill:#ffd42a;fill-rule:evenodd;stroke-width:2.69966269;stroke-linecap:round;stroke-linejoin:round;stroke-miterlimit:4;stroke-dasharray:none"
       d="m 530.19298,337.91439 -9.66546,-8.75 2.82621,-3.39286 c 1.55441,-1.86607 3.09316,-3.39286 3.41944,-3.39286 0.32628,0 4.60296,3.71294 9.50373,8.25097 7.16486,6.63454 9.00066,8.73159 9.37074,10.70428 0.65275,3.47948 -0.53983,5.33047 -3.43439,5.33047 -2.00941,0 -3.77259,-1.28349 -12.02027,-8.75 z"
       id="path5072"
       inkscape:connector-curvature="0"
       transform="scale(0.26458333)" />
    <path
       style="fill:#ffd42a;fill-rule:evenodd;stroke-width:0.23861872;stroke-linecap:round;stroke-linejoin:round;stroke-miterlimit:4;stroke-dasharray:none"
       d="m 358.63916,490.96153 c 0,-0.035 0.14373,-0.65657 0.31941,-1.38131 0.48542,-2.00261 0.79903,-3.64111 0.97724,-5.10579 0.32687,-2.68637 0.40098,-3.26547 0.4204,-3.2849 0.0385,-0.0385 12.12974,-5.7124 12.13923,-5.69641 0.005,0.009 -1.72404,3.42862 -3.84297,7.59935 l -3.85259,7.58315 -1.89659,0.0365 c -1.64029,0.0315 -2.68313,0.10332 -3.95864,0.27252 -0.18986,0.0252 -0.30549,0.0165 -0.30549,-0.0231 z"
       id="path5076"
       inkscape:connector-curvature="0"
       transform="scale(0.26458333)" />
    <path
       style="fill:#ffd42a;fill-rule:evenodd;stroke-width:0.23861872;stroke-linecap:round;stroke-linejoin:round;stroke-miterlimit:4;stroke-dasharray:none"
       d="m 355.25502,491.21404 c 0.0193,-0.0955 0.2501,-1.16545 0.51281,-2.37769 0.76197,-3.51604 1.09182,-5.5718 1.35832,-8.46567 0.0736,-0.79865 0.15286,-1.46834 0.17624,-1.48819 0.0234,-0.0199 1.80396,-0.86358 3.95685,-1.87494 2.15289,-1.01136 6.08649,-2.862 8.74134,-4.11253 2.65485,-1.25053 4.83817,-2.26252 4.85183,-2.24886 0.0136,0.0136 -0.32602,0.70118 -0.75483,1.52784 l -0.77964,1.50302 -7.13242,3.35726 c -3.92283,1.8465 -7.13837,3.38098 -7.14565,3.40997 -0.007,0.029 -0.0444,0.62091 -0.0826,1.31539 -0.11404,2.07667 -0.3842,4.21665 -0.79703,6.31346 -0.2009,1.0204 -0.65786,2.95247 -0.71199,3.01035 -0.0388,0.0415 -1.85856,0.30421 -2.10689,0.30421 -0.099,0 -0.11501,-0.0322 -0.0864,-0.17362 z"
       id="path5078"
       inkscape:connector-curvature="0"
       transform="scale(0.26458333)" />
    <path
       style="fill:#ffd42a;fill-rule:evenodd;stroke-width:0.23861872;stroke-linecap:round;stroke-linejoin:round;stroke-miterlimit:4;stroke-dasharray:none"
       d="m 328.8522,494.88119 c -3.85653,-3.95174 -7.00019,-7.19667 -6.98589,-7.21096 0.0474,-0.0474 0.52355,0.30164 1.21161,0.88815 0.91742,0.78202 3.63882,3.51275 6.21724,6.23854 4.00365,4.23251 5.97439,6.06092 6.53269,6.06092 0.31865,0 0.30242,-0.37418 -0.0424,-0.97684 -0.80414,-1.40549 -3.21962,-4.15851 -7.24422,-8.25655 -3.80541,-3.87484 -6.7646,-7.08992 -6.63697,-7.21089 0.0122,-0.0115 3.17573,3.21252 7.03009,7.16461 l 7.00793,7.18561 0.0451,-0.23144 c 0.0248,-0.1273 0.0895,-0.75705 0.14392,-1.39944 0.18558,-2.19246 0.54936,-4.10366 0.97632,-5.12924 0.86214,-2.07097 2.82021,-4.00703 5.84263,-5.77697 1.75311,-1.02663 9.41003,-4.99018 9.48854,-4.91167 0.0441,0.044 -0.11923,2.3044 -0.17806,2.46493 -0.0323,0.0883 -0.42392,0.2966 -1.30068,0.69204 -2.89573,1.30606 -5.89634,2.91403 -7.78883,4.17389 -2.6514,1.76506 -4.42619,3.61838 -5.40995,5.64932 -0.60131,1.24137 -1.11126,3.26893 -1.60293,6.37324 -0.11275,0.71184 -0.22507,1.31753 -0.24961,1.34598 -0.0245,0.0285 -3.19997,-3.1815 -7.05651,-7.13323 z"
       id="path5080"
       inkscape:connector-curvature="0"
       transform="scale(0.26458333)" />
    <path
       style="fill:#ffd42a;fill-rule:evenodd;stroke-width:0.23861872;stroke-linecap:round;stroke-linejoin:round;stroke-miterlimit:4;stroke-dasharray:none"
       d="m 327.19816,485.22492 c -1.41595,-0.12383 -3.08629,-0.40081 -4.38531,-0.72718 -1.06698,-0.26807 -1.10206,-0.32245 -0.18104,-0.28071 0.79157,0.0359 1.40545,0.11411 2.98799,0.38078 0.5035,0.0848 1.19955,0.18943 1.54679,0.23242 0.81585,0.10101 3.2911,0.10074 4.10375,-4.4e-4 3.88168,-0.48332 7.76941,-1.77855 14.23684,-4.74313 3.17335,-1.45462 4.67137,-2.28099 5.3294,-2.93992 0.42589,-0.42647 0.57198,-0.76711 0.56687,-1.32174 -0.006,-0.62218 -0.24986,-1.20205 -1.11785,-2.65535 -0.39312,-0.65821 -0.74836,-1.29312 -0.78942,-1.41091 -0.089,-0.25541 -0.0965,-0.44786 -0.0174,-0.44786 0.1042,0 1.12726,1.59734 1.48667,2.32121 0.53913,1.08583 0.84017,2.09023 0.9509,3.17272 l 0.0421,0.4116 -0.9686,0.52348 c -1.56464,0.84561 -5.84193,2.96374 -7.34518,3.63737 -3.81854,1.71113 -7.27308,2.89975 -10.00683,3.44308 -1.47889,0.29393 -2.4809,0.38804 -4.35628,0.40916 -0.98963,0.0112 -1.92718,0.009 -2.08344,-0.005 z"
       id="path5082"
       inkscape:connector-curvature="0"
       transform="scale(0.26458333)" />
    <path
       style="fill:#ffd42a;fill-rule:evenodd;stroke-width:0.23861872;stroke-linecap:round;stroke-linejoin:round;stroke-miterlimit:4;stroke-dasharray:none"
       d="m 360.46876,472.4989 c -10e-4,-0.83432 -0.0744,-2.31267 -0.15585,-3.14519 -0.0469,-0.47938 0.0428,-0.25938 0.32147,0.78918 0.11999,0.45141 0.29208,1.01056 0.38243,1.24255 0.17649,0.45321 0.47827,0.87245 0.628,0.87245 0.0507,0 0.59559,-0.22405 1.21075,-0.4979 0.90314,-0.40204 10.82131,-4.90707 12.71944,-5.77741 0.26911,-0.1234 0.48929,-0.20149 0.48929,-0.17355 0,0.0279 -0.50429,0.29575 -1.12064,0.59515 -0.61635,0.29939 -4.0746,1.98055 -7.68501,3.73592 -3.61041,1.75536 -6.61482,3.20758 -6.67648,3.22715 -0.10377,0.0329 -0.1122,-0.0316 -0.1134,-0.86835 z"
       id="path5084"
       inkscape:connector-curvature="0"
       transform="scale(0.26458333)" />
    <path
       style="fill:#ffd42a;fill-rule:evenodd;stroke-width:0.23861872;stroke-linecap:round;stroke-linejoin:round;stroke-miterlimit:4;stroke-dasharray:none"
       d="m 357.20852,474.23085 c -0.0597,-0.62199 -0.036,-5.37077 0.0273,-5.47322 0.0913,-0.14774 0.14884,0.46382 0.20157,2.14287 0.0305,0.97227 0.0868,1.98085 0.12507,2.24128 0.13947,0.94968 0.48482,1.30355 0.80642,0.82633 0.31516,-0.46768 0.49569,-1.4602 0.56709,-3.11784 0.0486,-1.1279 0.0503,-1.13814 0.0902,-0.54955 0.0224,0.32988 0.0439,1.29867 0.0478,2.15288 l 0.007,1.55309 -0.8775,0.38829 c -0.48263,0.21356 -0.89203,0.3883 -0.90979,0.3883 -0.0178,0 -0.0561,-0.2486 -0.0853,-0.55243 z"
       id="path5086"
       inkscape:connector-curvature="0"
       transform="scale(0.26458333)" />
    <path
       style="fill:#ffd42a;fill-rule:evenodd;stroke-width:0.23861872;stroke-linecap:round;stroke-linejoin:round;stroke-miterlimit:4;stroke-dasharray:none"
       d="m 349.96001,470.84476 c 0.19682,-0.13786 0.77264,-0.36538 2.33413,-0.92227 0.79865,-0.28483 2.0961,-0.75872 2.88322,-1.0531 0.87945,-0.3289 1.49958,-0.52733 1.60868,-0.51475 0.14519,0.0168 0.0273,0.0919 -0.64685,0.4124 -1.57604,0.74925 -3.91926,1.6019 -5.51141,2.00549 -0.71895,0.18225 -0.84417,0.19579 -0.66777,0.0722 z"
       id="path5088"
       inkscape:connector-curvature="0"
       transform="scale(0.26458333)" />
    <path
       style="fill:#ffd42a;fill-rule:evenodd;stroke-width:0.23861872;stroke-linecap:round;stroke-linejoin:round;stroke-miterlimit:4;stroke-dasharray:none"
       d="m 374.75442,491.65752 -0.83636,-0.22482 1.66496,-3.28973 c 0.91573,-1.80936 2.97742,-5.8964 4.58153,-9.08233 2.12465,-4.21977 2.94536,-5.79267 3.0226,-5.79287 0.0583,-1.6e-4 1.42714,-0.12788 3.0418,-0.28383 1.61467,-0.15595 3.00678,-0.28281 3.09359,-0.2819 0.12994,10e-4 0.13969,0.0122 0.0552,0.0616 -0.26872,0.15698 -0.93628,0.25922 -2.04389,0.31303 -1.32808,0.0645 -1.9063,0.13668 -2.63636,0.32898 -0.43715,0.11515 -0.51944,0.162 -0.76582,0.43604 -1.67641,1.86457 -8.3723,14.54528 -9.03897,17.11806 -0.13087,0.50505 -0.0397,0.62278 0.23364,0.30162 0.5959,-0.70022 2.23437,-3.6247 4.75753,-8.4916 1.92657,-3.71612 3.18028,-5.93223 3.29253,-5.81998 0.0453,0.0453 -7.44784,14.89857 -7.52566,14.91775 -0.033,0.008 -0.43628,-0.0864 -0.89628,-0.21004 z"
       id="path5090"
       inkscape:connector-curvature="0"
       transform="scale(0.26458333)" />
    <path
       style="fill:#ffd42a;fill-rule:evenodd;stroke-width:0.23861872;stroke-linecap:round;stroke-linejoin:round;stroke-miterlimit:4;stroke-dasharray:none"
       d=""
       id="path5092"
       inkscape:connector-curvature="0"
       transform="scale(0.26458333)" />
    <path
       style="fill:#ffd42a;fill-rule:evenodd;stroke-width:0.23861872;stroke-linecap:round;stroke-linejoin:round;stroke-miterlimit:4;stroke-dasharray:none"
       d="m 380.64154,492.32606 c -1.32976,-0.0564 -3.72162,-0.19001 -3.74169,-0.20898 -0.0134,-0.0127 7.72928,-15.41621 7.7873,-15.49236 0.009,-0.0116 1.33238,-0.15932 2.94127,-0.32833 1.60888,-0.16902 3.03889,-0.32271 3.17778,-0.34155 0.24651,-0.0334 0.24877,-0.032 0.0947,0.0588 -0.52306,0.30822 -1.75407,0.52743 -3.36838,0.59982 -1.41834,0.0636 -1.74761,0.13722 -2.22391,0.4972 -0.83372,0.63013 -1.36028,1.55752 -4.89806,8.6265 l -2.97008,5.93464 1.78994,0.0369 c 1.6842,0.0347 2.39716,0.10608 2.48543,0.2489 0.0186,0.03 -0.002,0.13426 -0.0468,0.23165 l -0.0805,0.17707 z"
       id="path5094"
       inkscape:connector-curvature="0"
       transform="scale(0.26458333)" />
    <path
       style="fill:#ffd42a;fill-rule:evenodd;stroke-width:0.23861872;stroke-linecap:round;stroke-linejoin:round;stroke-miterlimit:4;stroke-dasharray:none"
       d="m 354.74508,521.42121 c -4.0342,-4.13849 -7.32357,-7.53586 -7.30971,-7.54973 0.0393,-0.0393 0.79913,0.59369 1.73361,1.44437 0.46877,0.42674 2.61396,2.54029 4.76708,4.69677 3.90531,3.91142 5.02095,4.98562 6.15519,5.92662 1.06959,0.88735 1.58084,1.16158 1.68064,0.90149 0.10943,-0.28515 -1.18488,-1.98647 -3.29028,-4.32492 -1.64712,-1.82945 -2.95648,-3.18171 -7.47612,-7.72102 l -4.51026,-4.52991 0.3425,10e-4 0.34251,0.001 7.1342,7.31641 c 5.72677,5.87304 7.13868,7.28956 7.15687,7.18025 0.0125,-0.0749 -0.0993,-1.85624 -0.24838,-3.95855 l -0.27104,-3.82239 5.19543,-10.16191 c 2.85748,-5.58906 5.20556,-10.17273 5.21795,-10.18595 0.0503,-0.0536 0.86992,0.19513 1.32262,0.40143 1.08528,0.49458 2.50333,1.58921 3.63173,2.80343 0.32834,0.35331 0.60682,0.67107 0.61883,0.70613 0.012,0.0351 -0.50956,-0.3802 -1.15905,-0.92281 -1.24237,-1.03791 -2.26111,-1.75635 -2.9178,-2.05767 -0.65183,-0.29911 -0.70934,-0.27766 -1.27063,0.4738 -2.1095,2.82423 -8.53662,14.98786 -10.06094,19.04077 -0.26002,0.69136 -0.37372,1.26566 -0.25057,1.26566 0.32062,0 1.8454,-2.52456 4.00385,-6.62912 0.22825,-0.43405 1.29453,-2.52223 2.36951,-4.64039 1.07498,-2.11816 2.14616,-4.19213 2.3804,-4.60882 0.48428,-0.86147 1.10007,-1.82689 1.13988,-1.78708 0.0147,0.0147 -2.03186,4.13326 -4.54789,9.15237 l -4.57461,9.12564 0.0409,4.997 c 0.0225,2.74836 0.0291,4.99544 0.0147,4.99352 -0.0144,-0.002 -3.32687,-3.38953 -7.36107,-7.52801 z"
       id="path5096"
       inkscape:connector-curvature="0"
       transform="scale(0.26458333)" />
    <path
       style="fill:#ffd42a;fill-rule:evenodd;stroke-width:0.08436446;stroke-linecap:round;stroke-linejoin:round;stroke-miterlimit:4;stroke-dasharray:none"
       d="m 336.58892,504.17551 c 0,-0.006 0.0203,-0.1205 0.0452,-0.25484 0.0248,-0.13434 0.13062,-0.74147 0.23507,-1.34917 0.69744,-4.05744 1.21504,-6.26698 1.7329,-7.39754 0.49983,-1.09118 1.2827,-2.17714 2.37281,-3.29143 2.17902,-2.22736 5.65717,-4.31717 10.59175,-6.36393 0.28851,-0.11966 0.54567,-0.22422 0.57147,-0.23234 l 0.0469,-0.0148 -0.0539,0.36223 c -0.0637,0.4288 -0.46189,2.43457 -0.74576,3.75698 -0.53723,2.50278 -1.104,4.76709 -1.73481,6.93081 -0.10916,0.37444 -0.19694,0.68286 -0.19505,0.68537 0.002,0.003 0.2642,-0.0652 0.58292,-0.15045 3.25493,-0.87076 6.62412,-1.3157 9.96567,-1.3161 0.74371,-9e-5 1.93847,0.0349 2.15676,0.0632 l 0.11435,0.0148 -0.32044,0.71429 c -0.17624,0.39286 -0.36636,0.81537 -0.42249,0.93893 l -0.10205,0.22464 -0.28338,0.0378 c -0.15586,0.0208 -0.54676,0.0529 -0.86867,0.0713 -4.19221,0.24007 -7.79334,0.73681 -10.60629,1.46302 -0.23796,0.0614 -0.43681,0.10754 -0.4419,0.10246 -0.005,-0.005 0.0389,-0.0439 0.0978,-0.0862 0.37495,-0.26942 0.97659,-0.48989 1.78245,-0.65317 1.15961,-0.23495 3.3009,-0.54031 5.4898,-0.78287 2.23546,-0.24771 3.96806,-0.61665 4.68136,-0.99684 0.57088,-0.30427 0.28829,-0.4804 -0.89097,-0.5553 -0.46845,-0.0297 -2.03259,-0.0161 -2.73012,0.0238 -2.29503,0.13136 -4.35944,0.36494 -5.93215,0.6712 -0.53818,0.1048 -0.90339,0.19719 -1.79954,0.45525 -0.45276,0.13038 -0.82708,0.23318 -0.83181,0.22845 -0.005,-0.005 0.32244,-1.3988 0.72706,-3.09793 0.91133,-3.82692 1.11566,-4.74222 1.38481,-6.20315 0.18452,-1.00154 0.28808,-1.80521 0.25662,-1.99143 -0.0126,-0.0747 -0.0275,-0.0939 -0.0947,-0.122 -0.66354,-0.27724 -5.7914,2.67978 -8.78292,5.06474 -1.9069,1.52026 -2.94243,2.86456 -3.69305,4.79422 -0.33459,0.86014 -0.59218,1.75753 -0.98001,3.41407 -0.42167,1.80111 -0.76593,3.14341 -1.03648,4.04129 -0.14101,0.46796 -0.28924,0.87817 -0.28924,0.80044 z"
       id="path5102"
       inkscape:connector-curvature="0"
       transform="scale(0.26458333)" />
    <path
       style="fill:#ffd42a;fill-rule:evenodd;stroke-width:0.08436446;stroke-linecap:round;stroke-linejoin:round;stroke-miterlimit:4;stroke-dasharray:none"
       d="m 351.1983,510.4951 c -1.96429,-0.10765 -3.66685,-0.20094 -3.78348,-0.20731 -0.11663,-0.006 -0.21708,-0.0149 -0.22322,-0.019 -0.006,-0.004 1.66039,-0.0125 3.70339,-0.0186 l 3.71455,-0.0113 2.9224,-5.81097 c 1.60732,-3.19603 2.91857,-5.81479 2.91389,-5.81947 -0.0121,-0.0121 -4.5029,0.58792 -5.51985,0.73751 -1.51204,0.22241 -2.93028,0.45373 -3.97155,0.64778 -0.44619,0.0832 -0.87945,0.11985 -1.1847,0.10032 l -0.17857,-0.0114 0.25782,-0.0722 c 2.71315,-0.75984 6.27787,-1.28488 10.03235,-1.47765 1.0148,-0.0521 1.00027,-0.0518 0.98793,-0.0201 -0.041,0.10529 -6.07605,12.18325 -6.08651,12.18098 -0.007,-0.002 -1.62017,-0.0909 -3.58445,-0.19857 z"
       id="path5104"
       inkscape:connector-curvature="0"
       transform="scale(0.26458333)" />
    <path
       style="fill:#ffd42a;fill-rule:evenodd;stroke-width:0.08436446;stroke-linecap:round;stroke-linejoin:round;stroke-miterlimit:4;stroke-dasharray:none"
       d="m 363.14535,522.61039 -0.0172,-3.32048 4.17271,-8.29782 4.1727,-8.29782 0.23627,-0.006 c 0.12995,-0.003 0.23627,-10e-4 0.23627,0.005 0,0.006 -0.90062,1.77679 -2.00137,3.93491 -2.18894,4.29161 -3.80347,7.49643 -4.21453,8.3658 -1.72413,3.64646 -2.16307,5.21077 -2.42078,8.62724 -0.0357,0.47375 -0.0949,1.40067 -0.14108,2.20982 -0.003,0.0552 -0.0135,-1.39377 -0.023,-3.22004 z"
       id="path5106"
       inkscape:connector-curvature="0"
       transform="scale(0.26458333)" />
    <path
       style="fill:#ffd42a;fill-rule:evenodd;stroke-width:0.08436446;stroke-linecap:round;stroke-linejoin:round;stroke-miterlimit:4;stroke-dasharray:none"
       d="m 358.37121,527.20837 c -6.13409,-6.15971 -6.9857,-7.03106 -8.5802,-8.77907 -0.88157,-0.96643 -2.02452,-2.31067 -1.99217,-2.34302 0.005,-0.005 1.51008,1.52947 3.34482,3.40973 1.83474,1.88026 5.21675,5.34591 7.51558,7.70146 3.89105,3.98705 4.17968,4.28802 4.17968,4.35835 0,0.0415 -0.009,0.081 -0.0195,0.0876 -0.0107,0.007 -2.01242,-1.98914 -4.44818,-4.43507 z"
       id="path5108"
       inkscape:connector-curvature="0"
       transform="scale(0.26458333)" />
    <path
       style="fill:#ffd42a;fill-rule:evenodd;stroke-width:0.08436446;stroke-linecap:round;stroke-linejoin:round;stroke-miterlimit:4;stroke-dasharray:none"
       d="m 377.35061,500.96708 c 0,-0.0987 0.49096,-1.50138 0.77763,-2.22168 0.41994,-1.05518 1.05335,-2.41119 1.54519,-3.30794 0.48453,-0.88342 0.95622,-1.68153 1.38919,-2.35055 0.13507,-0.2087 0.29179,-0.45152 0.34826,-0.5396 0.0675,-0.10525 0.12008,-0.16352 0.15346,-0.17 0.0431,-0.008 0.0485,-0.003 0.036,0.0374 -0.0628,0.20042 -0.74261,1.62897 -1.476,3.10178 -0.53364,1.07169 -2.74363,5.43424 -2.76554,5.45922 -0.004,0.005 -0.008,0.001 -0.008,-0.009 z"
       id="path5110"
       inkscape:connector-curvature="0"
       transform="scale(0.26458333)" />
    <path
       style="fill:#ffd42a;fill-rule:evenodd;stroke-width:0.08436446;stroke-linecap:round;stroke-linejoin:round;stroke-miterlimit:4;stroke-dasharray:none"
       d="m 377.88924,506.90946 c 1.35367,-3.95752 2.5194,-6.7857 3.69173,-8.95647 0.31736,-0.58765 0.43446,-0.78775 0.43465,-0.74273 9e-5,0.0212 -0.0444,0.1819 -0.0988,0.35714 -0.31939,1.02834 -0.63719,1.84293 -1.17365,3.00835 -1.04228,2.26432 -1.808,4.12069 -2.24441,5.44128 -0.21635,0.65468 -0.29294,0.84466 -0.3848,0.9545 -0.0642,0.0768 -0.1451,0.12208 -0.21801,0.12208 h -0.0697 z"
       id="path5112"
       inkscape:connector-curvature="0"
       transform="scale(0.26458333)" />
    <path
       style="fill:#ffd42a;fill-rule:evenodd;stroke-width:0.08436446;stroke-linecap:round;stroke-linejoin:round;stroke-miterlimit:4;stroke-dasharray:none"
       d="m 377.49457,504.86705 c -0.0219,-0.0338 -0.18567,-0.25657 -0.36403,-0.49513 -1.65598,-2.215 -3.27684,-3.91696 -4.49928,-4.7244 l -0.13231,-0.0874 0.11728,-0.007 c 0.17338,-0.0101 0.33893,0.0322 0.55622,0.14203 0.25561,0.12918 0.44767,0.27664 0.78319,0.6013 0.39414,0.38139 0.72756,0.7569 2.0771,2.33931 0.65632,0.76955 1.201,1.39149 1.21042,1.38207 0.009,-0.009 0.5656,-1.15692 1.23596,-2.55001 0.67037,-1.39309 1.3699,-2.83423 1.55452,-3.20253 0.62016,-1.23719 1.10098,-2.07729 1.47026,-2.56886 0.14576,-0.19404 0.42348,-0.47802 0.46747,-0.47802 0.0115,0 -0.0473,0.10798 -0.13059,0.23996 -1.50012,2.37593 -2.84557,5.31468 -4.10331,8.96249 -0.0961,0.27885 -0.18118,0.50708 -0.18898,0.50718 -0.008,1.1e-4 -0.0321,-0.0274 -0.0539,-0.0612 z"
       id="path5114"
       inkscape:connector-curvature="0"
       transform="scale(0.26458333)" />
    <path
       style="fill:#ffd42a;fill-rule:evenodd;stroke-width:0.08436446;stroke-linecap:round;stroke-linejoin:round;stroke-miterlimit:4;stroke-dasharray:none"
       d="m 377.57321,506.98931 c -0.0303,-0.0205 -0.13933,-0.10808 -0.24217,-0.19455 -0.3408,-0.28655 -0.78364,-0.78325 -3.19139,-3.5795 -0.83775,-0.97293 -1.53027,-1.76875 -1.53893,-1.76848 -0.009,2.6e-4 -0.15636,0.27643 -0.32823,0.61369 l -0.3125,0.61321 -0.24096,1.4e-4 -0.24096,1.5e-4 0.47533,-0.93475 0.47534,-0.93475 0.17857,0.15859 c 0.43557,0.38682 0.83102,0.81478 1.56029,1.68859 0.96297,1.15382 3.49551,4.31858 3.49551,4.36812 0,0.0171 -0.0393,0.004 -0.0899,-0.0305 z"
       id="path5116"
       inkscape:connector-curvature="0"
       transform="scale(0.26458333)" />
    <path
       style="fill:#ffd42a;fill-rule:evenodd;stroke-width:0.08436446;stroke-linecap:round;stroke-linejoin:round;stroke-miterlimit:4;stroke-dasharray:none"
       d="m 385.17427,475.31643 c 0.33945,-0.11973 1.20699,-0.32298 1.88616,-0.4419 1.27229,-0.22278 2.52993,-0.2708 3.41518,-0.13039 0.21965,0.0348 0.22877,0.0383 0.14509,0.0551 -0.0839,0.0168 -5.53648,0.57753 -5.58166,0.57396 -0.0116,-9.2e-4 0.0493,-0.0265 0.13523,-0.0568 z"
       id="path5118"
       inkscape:connector-curvature="0"
       transform="scale(0.26458333)" />
    <path
       style="fill:#ffd42a;fill-rule:evenodd;stroke-width:0.08436446;stroke-linecap:round;stroke-linejoin:round;stroke-miterlimit:4;stroke-dasharray:none"
       d="m 384.12778,466.87895 c -2.96699,-3.04046 -5.38954,-5.53308 -5.38345,-5.53918 0.006,-0.006 0.16458,0.13287 0.35221,0.3088 2.80251,2.6279 7.05759,6.90033 9.06933,9.10633 0.80352,0.88111 1.40485,1.60372 1.36649,1.64208 -0.006,0.006 -2.4376,-2.47758 -5.40458,-5.51803 z"
       id="path5120"
       inkscape:connector-curvature="0"
       transform="scale(0.26458333)" />
    <path
       style="fill:#d4aa00;fill-rule:evenodd;stroke-width:0.08436446;stroke-linecap:round;stroke-linejoin:round;stroke-miterlimit:4;stroke-dasharray:none"
       d="m 375.98342,465.78129 0.0725,-0.0351 10e-6,-1.79841 c 1e-5,-0.98912 0.0102,-1.98423 0.0227,-2.21135 0.0671,-1.22262 0.23969,-2.06467 0.4499,-2.19536 0.06,-0.0373 0.15991,0.0182 0.14576,0.081 -0.006,0.0273 -0.13979,1.4308 -0.29696,3.11886 l -0.28577,3.0692 -0.0904,0.003 -0.0904,0.003 z"
       id="path5122"
       inkscape:connector-curvature="0"
       transform="scale(0.26458333)" />
    <path
       style="fill:#d4aa00;fill-rule:evenodd;stroke-width:0.57141203;stroke-linecap:round;stroke-linejoin:round;stroke-miterlimit:4;stroke-dasharray:none"
       d="m 116.82954,99.528468 -0.67386,0.729152 -0.67335,0.72916 4.82451,4.45554 0.67335,-0.72915 0.67334,-0.72916 z"
       id="rect5126"
       inkscape:connector-curvature="0" />
    <path
       inkscape:connector-curvature="0"
       style="fill:#d4aa00;fill-rule:evenodd;stroke-width:0.57141203;stroke-linecap:round;stroke-linejoin:round;stroke-miterlimit:4;stroke-dasharray:none"
       d="m 114.69089,101.97651 -0.67386,0.72915 -0.67334,0.72916 4.82451,4.45555 0.67334,-0.72916 0.67335,-0.72915 z"
       id="rect5126-6" />
    <path
       inkscape:connector-curvature="0"
       style="fill:#d4aa00;fill-rule:evenodd;stroke-width:0.57141203;stroke-linecap:round;stroke-linejoin:round;stroke-miterlimit:4;stroke-dasharray:none"
       d="m 112.58615,104.44875 -0.67386,0.72916 -0.67335,0.72915 4.82451,4.45555 0.67335,-0.72916 0.67334,-0.72915 z"
       id="rect5126-7" />
    <path
       style="fill:#2b0000;fill-rule:evenodd;stroke-width:0.47723743;stroke-linecap:round;stroke-linejoin:round;stroke-miterlimit:4;stroke-dasharray:none"
       d="m 386.39557,559.62161 c -16.92805,-1.38067 -38.091,-11.3483 -65.31567,-30.7633 l -3.19129,-2.27584 -2.06023,-2.98037 c -14.26635,-20.63804 -23.0668,-37.88615 -26.64676,-52.22531 -2.14122,-8.57642 -2.32304,-16.42164 -0.52488,-22.64778 1.31929,-4.56805 3.53109,-8.30925 6.89684,-11.66583 l 1.61432,-1.60994 3.19758,0.002 3.19758,0.002 -1.01015,0.64752 c -6.65299,4.26463 -10.42261,10.38611 -11.30086,18.35149 -0.19726,1.78901 -0.16976,5.99497 0.053,8.10001 1.26957,11.99966 7.35669,26.93684 18.23368,44.74359 2.91509,4.77229 7.40932,11.61272 10.32853,15.7205 0.70357,0.99004 1.03993,1.2603 5.41413,4.35031 27.34949,19.32012 49.454,29.03402 65.15484,28.63252 2.90739,-0.0744 4.73874,-0.31045 7.09779,-0.91507 1.6897,-0.43306 3.9493,-1.28473 5.2034,-1.96122 0.37645,-0.20306 0.71119,-0.34246 0.74387,-0.30978 0.0657,0.0657 -0.98299,3.52153 -1.28988,4.25069 -0.18835,0.44749 -0.24126,0.47551 -1.96676,1.04128 -1.76634,0.57915 -3.95347,1.07845 -5.87408,1.34099 -1.02813,0.14054 -6.80583,0.26478 -7.95495,0.17105 z"
       id="path5169"
       inkscape:connector-curvature="0"
       transform="scale(0.26458333)" />
    <path
       style="fill:#2b0000;fill-rule:evenodd;stroke-width:0.47723743;stroke-linecap:round;stroke-linejoin:round;stroke-miterlimit:4;stroke-dasharray:none"
       d="m 385.87257,559.58078 c -9.24844,-0.8407 -19.68604,-4.2298 -31.81981,-10.3319 -10.21927,-5.1393 -20.53268,-11.5238 -33.16685,-20.53187 l -2.98855,-2.13082 -1.25485,-1.7991 c -17.14156,-24.57613 -26.68198,-44.60014 -28.82995,-60.51002 -0.3271,-2.42284 -0.46239,-7.5091 -0.25405,-9.55125 0.42694,-4.18476 1.26307,-7.27169 2.85208,-10.52973 1.35796,-2.78428 2.88922,-4.87259 5.39488,-7.35744 l 1.43471,-1.42279 3.14494,0.0338 3.14494,0.0338 -1.06022,0.69448 c -3.21522,2.10609 -5.36257,4.17932 -7.26248,7.01184 -1.91984,2.86224 -3.14727,6.11828 -3.8065,10.09762 -0.32145,1.94044 -0.31779,7.97948 0.006,10.29093 0.99686,7.11085 3.37947,14.84465 7.16144,23.24561 3.45465,7.67389 8.52918,16.81929 14.32121,25.80992 1.43374,2.22552 5.29709,7.98175 6.45101,9.61173 1.12865,1.59429 1.23388,1.70178 2.79014,2.85025 2.30285,1.6994 6.57879,4.67943 9.95588,6.93852 27.54626,18.42701 49.15559,26.33095 63.95043,23.39082 1.96077,-0.38965 4.18578,-1.1241 5.96488,-1.96892 0.74826,-0.35532 1.39865,-0.60786 1.44531,-0.5612 0.17313,0.17313 -1.17652,4.2568 -1.49797,4.53245 -0.38896,0.33353 -3.21666,1.19601 -5.30745,1.61882 -1.09215,0.22085 -2.62692,0.42546 -3.72494,0.49659 -1.76942,0.11462 -5.95253,0.13707 -7.04449,0.0378 z"
       id="path5171"
       inkscape:connector-curvature="0"
       transform="scale(0.26458333)" />
    <path
       style="fill:#2b0000;fill-rule:evenodd;stroke-width:0.47723743;stroke-linecap:round;stroke-linejoin:round;stroke-miterlimit:4;stroke-dasharray:none"
       d="m 384.6686,438.99046 c -0.24307,-0.0948 -1.15242,-0.48405 -2.02078,-0.86507 -5.43593,-2.38515 -15.33776,-5.03998 -25.0008,-6.70308 -5.73121,-0.98639 -10.56765,-1.56199 -16.73065,-1.99116 -3.00976,-0.20959 -11.67249,-0.21103 -14.26841,-0.002 -9.18019,0.7379 -15.53914,2.2735 -21.34643,5.15486 l -1.901,0.9432 -3.00327,-0.1021 -3.00327,-0.10209 1.1162,-0.8429 c 6.9186,-5.22461 17.02305,-8.17777 30.15808,-8.81411 12.16071,-0.58914 27.48589,1.13346 41.66879,4.68371 5.37703,1.34598 11.06024,3.17858 14.00176,4.515 0.47838,0.21734 0.93653,0.39516 1.01811,0.39516 0.0816,0 2.01221,-2.18761 4.2903,-4.86136 2.27809,-2.67374 4.16381,-4.86136 4.1905,-4.86136 0.0267,0 0.0485,1.24044 0.0485,2.75653 v 2.75653 l -3.35889,3.94371 c -1.84739,2.16904 -3.4989,3.99694 -3.67002,4.062 -0.45099,0.17147 -1.67538,0.13505 -2.18873,-0.0651 z"
       id="path5173"
       inkscape:connector-curvature="0"
       transform="scale(0.26458333)" />
    <path
       style="fill:#2b0000;fill-rule:evenodd;stroke-width:0.47723743;stroke-linecap:round;stroke-linejoin:round;stroke-miterlimit:4;stroke-dasharray:none"
       d="m 403.54,418.97079 c 0.0897,-0.9016 0.78396,-5.18867 0.92656,-5.7216 0.0975,-0.36438 0.97069,-1.39195 27.05371,-31.83702 20.2263,-23.60888 40.3056,-46.94422 40.33838,-46.8796 0.008,0.015 -0.0275,1.31678 -0.0782,2.89275 l -0.092,2.8654 -1.62536,1.86969 c -6.98133,8.03079 -34.56868,40.17488 -52.80908,61.53183 -7.38455,8.64627 -13.50953,15.80573 -13.61106,15.9099 -0.16226,0.16648 -0.17472,0.0901 -0.10294,-0.63135 z"
       id="path5175"
       inkscape:connector-curvature="0"
       transform="scale(0.26458333)" />
    <path
       style="fill:#2b0000;fill-rule:evenodd;stroke-width:0.47723743;stroke-linecap:round;stroke-linejoin:round;stroke-miterlimit:4;stroke-dasharray:none"
       d="m 481.06057,373.6402 c 0.24831,-0.95851 0.57718,-3.29269 0.65617,-4.65715 l 0.0905,-1.56355 8.84425,-10.24261 c 4.86433,-5.63343 11.80222,-13.6455 15.41752,-17.8046 9.18837,-10.57043 9.1618,-10.53921 9.1618,-10.76605 0,-0.39905 0.54664,-1.08521 1.04083,-1.30647 0.3802,-0.17022 1.3953,-1.2497 4.32702,-4.60146 2.11718,-2.42053 3.96171,-4.64387 4.12414,-4.97112 0.24242,-0.48841 0.74074,-0.97295 1.21734,-1.18368 0.0498,-0.022 1.16923,-1.26172 2.48752,-2.75485 6.59754,-7.47256 12.2413,-13.70203 16.47638,-18.18629 2.70001,-2.85888 3.36733,-3.84126 3.72445,-5.48292 0.37229,-1.71144 0.18366,-1.58461 2.35673,-1.58461 1.47129,0 1.87377,0.0359 1.87377,0.16729 0,0.092 -0.13725,0.57082 -0.305,1.06402 -0.16775,0.4932 -0.40255,1.34126 -0.52178,1.88458 -0.2364,1.07728 -0.44042,1.557 -0.89259,2.0988 -0.16218,0.19433 -0.39568,0.64041 -0.51888,0.99129 -0.14222,0.40506 -0.40839,0.80481 -0.72908,1.09497 -0.75846,0.68627 -3.7477,3.73052 -4.83376,4.92273 l -0.95548,1.04886 0.36924,0.35316 c 0.20308,0.19424 4.64484,4.31302 9.87057,9.15283 5.22573,4.83982 9.58415,8.95982 9.68537,9.15555 0.10122,0.19574 0.33987,1.17345 0.53033,2.17268 0.43712,2.29324 0.4962,5.21461 0.13251,6.55188 -0.67237,2.47224 -1.82984,3.76244 -4.09208,4.56135 -1.97792,0.6985 -7.03641,0.25787 -8.50769,-0.74108 -0.1795,-0.12188 -4.68758,-4.19907 -10.01794,-9.06043 -5.33036,-4.86136 -9.73406,-8.85467 -9.786,-8.87402 -0.10578,-0.0394 -3.04006,3.23375 -3.04006,3.39115 0,0.0552 4.3042,4.08632 9.56488,8.95804 5.26069,4.87172 9.69495,9.0167 9.85391,9.21107 0.58506,0.71537 1.24369,4.84132 1.12643,7.05652 -0.20697,3.91013 -1.87009,6.08726 -5.16664,6.7635 -1.19814,0.24578 -2.11086,0.24811 -4.11681,0.0105 -1.79284,-0.21235 -2.3857,-0.35403 -3.17843,-0.7596 -0.33938,-0.17363 -4.47679,-3.85314 -10.21738,-9.08661 -7.71636,-7.03469 -9.67679,-8.76162 -9.79569,-8.62895 -1.88972,2.10865 -25.51163,29.39808 -32.82406,37.92031 -3.72826,4.34508 -3.54005,4.14082 -3.43232,3.72494 z m 63.55984,-26.9575 c 0.7783,-0.31611 1.11486,-0.78869 1.36617,-1.9183 0.25704,-1.15532 0.18809,-3.08832 -0.17482,-4.90118 l -0.2275,-1.13642 -0.87675,-0.83249 c -0.48221,-0.45787 -4.45648,-4.14503 -8.8317,-8.1937 -4.37522,-4.04866 -8.21876,-7.61497 -8.5412,-7.92513 l -0.58624,-0.56393 -3.39123,3.87409 c -1.86518,2.13075 -3.39123,3.9207 -3.39123,3.97767 0,0.15042 19.11514,17.55326 19.29454,17.56616 0.083,0.006 0.7191,0.0865 1.41358,0.17887 1.6018,0.21314 3.24074,0.16096 3.94638,-0.12564 z m 14.89605,-16.41729 c 0.89537,-0.2659 1.34375,-0.80913 1.60085,-1.93954 0.30531,-1.34235 0.24189,-2.73872 -0.25455,-5.60479 -0.0751,-0.43367 -0.90438,-1.23707 -9.61209,-9.31234 -5.24143,-4.86075 -9.56823,-8.83772 -9.61512,-8.83772 -0.0469,0 -1.19156,1.23349 -2.54369,2.74109 -1.35214,1.5076 -2.89425,3.22609 -3.42691,3.81888 -0.74656,0.83081 -0.93679,1.11598 -0.83017,1.24445 0.0761,0.0917 4.45191,4.09789 9.72409,8.90272 5.48315,4.99712 9.72947,8.77449 9.92153,8.82583 1.25398,0.33521 4.13942,0.42769 5.03606,0.16142 z"
       id="path5177"
       inkscape:connector-curvature="0"
       transform="scale(0.26458333)" />
    <path
       style="fill:#2b0000;fill-rule:evenodd;stroke-width:0.47723743;stroke-linecap:round;stroke-linejoin:round;stroke-miterlimit:4;stroke-dasharray:none"
       d="m 481.51951,328.6224 c 10e-4,-0.13731 0.0545,-0.59059 0.11798,-1.00728 0.0635,-0.41669 0.26574,-1.78039 0.44945,-3.03046 0.23897,-1.62613 0.39712,-2.3447 0.55582,-2.52538 0.12199,-0.13889 1.92154,-2.21277 3.99899,-4.60861 2.07746,-2.39584 6.40914,-7.36769 9.62596,-11.04854 5.15185,-5.89503 5.90544,-6.70752 6.32446,-6.81874 0.5461,-0.14495 8.83707,-6.41653 8.56119,-6.47598 -0.16194,-0.0349 -3.30017,0.73461 -3.81114,0.93451 -0.23872,0.0934 -0.2379,0.083 0.0192,-0.24387 0.1477,-0.18777 2.13499,-2.42688 4.4162,-4.97579 9.83549,-10.98972 13.59086,-14.84896 15.32246,-15.74626 0.52086,-0.26991 1.1743,-0.64242 1.45209,-0.82779 0.89453,-0.59694 2.63034,-1.48747 3.41006,-1.74948 1.14078,-0.38334 3.5285,-0.55508 6.94401,-0.49945 l 3.03045,0.0494 1.13643,0.41611 c 2.87183,1.05154 4.80173,2.15837 6.76557,3.88017 1.41113,1.23721 2.41871,2.39683 2.89127,3.32754 0.63434,1.24933 0.96951,5.8975 0.57967,8.03896 -0.16785,0.92204 -0.3357,2.06276 -0.38495,2.6162 -0.0193,0.21669 -0.16815,0.23608 -1.93875,0.25254 -1.65777,0.0154 -1.90796,-0.008 -1.84479,-0.17157 0.0402,-0.10418 0.15717,-0.78603 0.25996,-1.51523 0.10765,-0.76371 0.29483,-1.52659 0.44149,-1.79934 0.14004,-0.26043 0.19416,-0.47351 0.12027,-0.47351 -0.0832,0 -0.13511,-0.37239 -0.13635,-0.97858 -0.004,-1.91595 -0.23629,-3.96301 -0.51529,-4.53935 -0.27093,-0.55968 -2.18681,-2.42665 -3.18517,-3.10388 -0.85702,-0.58136 -3.09996,-1.66973 -4.21733,-2.04645 l -1.03812,-0.34999 -3.50756,0.0658 c -3.98551,0.0748 -4.12777,0.10143 -5.84354,1.09269 -0.59031,0.34104 -1.55627,0.88804 -2.14658,1.21556 -1.42705,0.79175 -2.85893,2.15117 -7.30947,6.93952 -6.06702,6.52755 -20.36543,22.71375 -35.35892,40.0273 -5.47588,6.3232 -5.18839,6.00831 -5.18505,5.67923 z"
       id="path5179"
       inkscape:connector-curvature="0"
       transform="scale(0.26458333)" />
    <path
       style="fill:#2b0000;fill-rule:evenodd;stroke-width:0.47723743;stroke-linecap:round;stroke-linejoin:round;stroke-miterlimit:4;stroke-dasharray:none"
       d="m 358.31523,521.5289 c -4.28335,-4.34702 -10.88807,-11.13689 -10.85797,-11.16235 0.0139,-0.0118 1.30384,0.0548 2.86642,0.14811 1.56258,0.0933 3.22448,0.172 3.69311,0.17498 l 0.85206,0.005 3.0379,-6.07477 c 1.67085,-3.34113 3.00443,-6.10825 2.96351,-6.14917 -0.0409,-0.0409 -1.02431,-0.007 -2.18533,0.0751 -3.02149,0.214 -5.39974,0.56384 -8.02857,1.18102 -1.0923,0.25644 -1.1401,0.2578 -1.30152,0.037 -0.24343,-0.3329 -0.20636,-0.52167 0.11652,-0.59335 3.53721,-0.78534 5.95336,-1.14054 9.64726,-1.41825 1.29006,-0.097 2.36052,-0.19354 2.37881,-0.21455 0.15067,-0.17308 0.82366,-1.90934 0.76343,-1.96957 -0.15625,-0.15624 -4.85393,-0.0407 -6.57075,0.16165 -1.71863,0.20254 -4.10946,0.64132 -5.46646,1.00324 -0.61449,0.16389 -0.66301,0.16125 -0.60315,-0.0327 0.86822,-2.81377 2.76958,-11.25549 2.57821,-11.44685 -0.0391,-0.0391 -0.89248,0.29356 -1.89647,0.73918 -4.66925,2.07242 -7.30561,3.7393 -9.47664,5.99173 -2.27191,2.3571 -2.73451,3.50607 -3.82196,9.49262 -0.25861,1.42368 -0.48888,2.60851 -0.51171,2.63296 -0.0228,0.0245 -0.16821,-0.0443 -0.32304,-0.15274 -0.34338,-0.2405 -13.72752,-13.949 -14.33535,-14.68274 -0.3893,-0.46996 -0.4245,-0.57546 -0.34916,-1.04661 0.0461,-0.28818 0.13488,-0.50693 0.19732,-0.48612 0.0625,0.0208 3.26938,3.27602 7.12651,7.23379 3.85714,3.95777 7.05382,7.21094 7.10374,7.22927 0.0499,0.0183 0.21995,-0.77716 0.37784,-1.76777 0.39863,-2.50097 0.97351,-4.78855 1.47885,-5.88467 1.5931,-3.45555 5.22297,-6.26932 12.35214,-9.57503 1.11859,-0.51868 2.08089,-0.98903 2.13845,-1.04523 0.10566,-0.10315 0.37055,-2.66699 0.28444,-2.75309 -0.1556,-0.15561 -9.21185,4.65095 -11.00185,5.83917 -1.89456,1.25763 -3.50279,2.93098 -4.21482,4.38549 -0.72953,1.49024 -0.91333,2.33932 -1.36522,6.30654 l -0.0959,0.84205 -6.84494,-7.02386 c -3.76472,-3.86313 -6.83281,-7.036 -6.81799,-7.05083 0.0148,-0.0148 0.48129,0.0816 1.03657,0.21435 2.47442,0.5914 6.14678,0.79966 8.65219,0.49067 4.46083,-0.55015 10.18888,-2.68778 17.6592,-6.59017 l 2.44709,-1.27832 -0.0724,-0.82957 c -0.11696,-1.34085 -0.78745,-2.98322 -1.86672,-4.57251 -0.34582,-0.50924 -0.45308,-0.75913 -0.34088,-0.79421 0.09,-0.0281 0.78779,-0.23029 1.55057,-0.4492 1.64779,-0.47291 3.40276,-1.11805 4.82099,-1.77224 l 1.03082,-0.47549 -0.0207,3.13288 c -0.0114,1.72308 0.0228,3.1764 0.0759,3.22959 0.0531,0.0532 0.50769,-0.074 1.01015,-0.28264 l 0.91358,-0.37936 0.0101,-2.64246 c 0.0101,-2.65307 0.0935,-3.21066 0.47984,-3.21066 0.091,0 0.26266,0.10748 0.38155,0.23884 0.17591,0.19438 0.2421,0.68463 0.3555,2.63284 l 0.13935,2.39399 1.90534,-0.91871 c 1.04794,-0.5053 4.57594,-2.21802 7.83999,-3.80604 l 5.93465,-2.88732 0.27,-2.83585 c 0.1485,-1.55971 0.29055,-2.96897 0.31567,-3.13168 0.0435,-0.28165 0.079,-0.26643 0.74016,0.3173 1.05778,0.93389 12.01942,12.18173 11.94464,12.25651 -0.036,0.036 -1.47356,0.20266 -3.19454,0.37033 -1.72098,0.16766 -3.1689,0.34508 -3.21758,0.39426 -0.0487,0.0492 -2.14011,4.1634 -4.6476,9.1427 l -4.55908,9.05327 0.54282,0.13991 c 0.29855,0.0769 0.73129,0.19919 0.96165,0.27165 0.23036,0.0725 0.43574,0.11188 0.45639,0.0876 0.0207,-0.0243 1.75986,-3.477 3.86489,-7.67269 2.10503,-4.19569 3.99627,-7.82094 4.20274,-8.0561 0.20648,-0.23517 0.53472,-0.50995 0.72944,-0.61064 0.20316,-0.10506 1.39241,-0.28986 2.79074,-0.43365 1.3402,-0.13782 2.66807,-0.28178 2.95084,-0.31992 0.50359,-0.0679 0.51708,-0.0597 0.65881,0.40211 0.0796,0.2593 0.12665,0.4895 0.10459,0.51155 -0.022,0.0221 -1.42653,0.18444 -3.12106,0.36085 -1.69452,0.17642 -3.13778,0.3397 -3.20722,0.36287 -0.15764,0.0526 -7.97845,15.55091 -7.89182,15.63904 0.0347,0.0353 1.06469,0.11221 2.28882,0.17086 l 2.22568,0.10664 -0.73613,1.21688 c -1.30487,2.15703 -2.40705,4.52401 -3.21897,6.91287 -0.0385,0.11318 -0.48192,-0.25116 -1.2582,-1.03378 -0.65933,-0.66471 -1.62109,-1.49102 -2.13725,-1.83625 -0.94849,-0.63439 -2.22686,-1.19806 -2.56255,-1.12992 -0.10046,0.0204 -2.5062,4.58277 -5.34609,10.13861 -4.96955,9.72221 -5.1633,10.1276 -5.15991,10.796 0.002,0.38197 0.10944,2.11501 0.2389,3.85121 0.12946,1.7362 0.21934,3.17376 0.19975,3.19458 -0.0196,0.0208 -1.39615,-1.34289 -3.059,-3.03046 z m -1.52144,-30.22922 c 0.84832,-0.099 0.75714,0.0881 1.34791,-2.76486 0.46511,-2.24608 0.76826,-4.49688 0.87434,-6.49158 l 0.0833,-1.56709 7.1342,-3.35974 7.1342,-3.35973 0.85198,-1.62898 c 0.4686,-0.89594 0.83763,-1.64333 0.82009,-1.66088 -0.044,-0.044 -17.68273,8.26725 -17.78563,8.38046 -0.0455,0.0501 -0.17631,1.03216 -0.2906,2.18235 -0.24667,2.48244 -0.62483,4.75661 -1.32637,7.97648 -0.28344,1.30093 -0.51535,2.40199 -0.51535,2.44682 0,0.0448 0.21308,0.0477 0.47351,0.006 0.26043,-0.0413 0.7997,-0.11314 1.19838,-0.15965 z m 4.34104,-0.42484 c 1.03339,-0.0743 2.30456,-0.14823 2.82482,-0.16427 l 0.94593,-0.0292 3.8749,-7.63771 c 2.1312,-4.20074 3.85714,-7.65548 3.83542,-7.6772 -0.0331,-0.0331 -12.1576,5.61855 -12.30239,5.73457 -0.0267,0.0214 -0.18135,1.10613 -0.34366,2.41052 -0.29886,2.40169 -0.57669,3.90325 -1.13224,6.11942 -0.38801,1.54781 -0.3883,1.54028 0.0559,1.45144 0.19931,-0.0399 1.20789,-0.13328 2.24127,-0.20759 z"
       id="path5181"
       inkscape:connector-curvature="0"
       transform="scale(0.26458333)" />
    <path
       style="fill:#2b0000;fill-rule:evenodd;stroke-width:0.11930936;stroke-linecap:round;stroke-linejoin:round;stroke-miterlimit:4;stroke-dasharray:none"
       d="m 355.80535,524.23062 c -3.85061,-3.94669 -7.28027,-7.4599 -7.62146,-7.80714 -0.62216,-0.63317 -0.82363,-0.88779 -1.1271,-1.42438 l -0.12715,-0.22483 0.10345,-0.44389 c 0.11194,-0.48038 0.12329,-0.5112 0.18821,-0.5112 0.0238,0 3.38406,3.42347 7.46736,7.60771 4.0833,4.18424 7.43673,7.60771 7.45208,7.60771 0.0159,0 0.0212,-0.4048 0.0124,-0.93912 -0.009,-0.51652 -0.0227,-2.78688 -0.0314,-5.04525 l -0.0159,-4.10612 4.68209,-9.34153 4.68209,-9.34154 0.22048,-0.22097 c 0.24367,-0.24421 0.51131,-0.41899 0.68472,-0.44713 0.10337,-0.0168 0.14215,0.003 0.44811,0.22573 1.27879,0.93194 2.72048,2.47367 4.33095,4.6315 0.21763,0.2916 0.3995,0.53017 0.40416,0.53017 0.005,0 0.0619,-0.1527 0.12715,-0.33934 0.99165,-2.83543 1.8169,-4.822 2.7899,-6.71594 0.65572,-1.27635 1.51534,-2.73057 1.6141,-2.73057 0.0284,0 0.0787,0.0299 0.11179,0.0664 0.085,0.0938 0.0997,0.58727 0.0299,0.99967 -0.0902,0.53243 -0.16436,0.76904 -0.33302,1.06214 -0.95136,1.65332 -1.99346,3.97619 -3.02474,6.74222 -0.29738,0.79761 -0.87931,2.43296 -1.01941,2.86473 -0.0239,0.0738 -0.0569,0.13772 -0.0733,0.14206 -0.0163,0.004 -0.15861,-0.16258 -0.31613,-0.37092 -0.35635,-0.47132 -2.80083,-3.499 -3.42795,-4.2458 -0.25515,-0.30383 -0.58236,-0.68027 -0.72715,-0.83653 -0.27264,-0.29424 -0.84581,-0.83653 -0.88416,-0.83653 -0.012,0 -2.11275,4.15859 -4.6683,9.24132 l -4.64644,9.24131 0.006,3.69337 0.006,3.69337 -0.1428,2.36196 c -0.0785,1.29908 -0.14983,2.36899 -0.15841,2.37757 -0.009,0.009 -3.16611,-3.2135 -7.01672,-7.16018 z"
       id="path5183"
       inkscape:connector-curvature="0"
       transform="scale(0.26458333)" />
    <circle
       style="fill:#2b0000;fill-rule:evenodd;stroke-width:1;stroke-linecap:round;stroke-linejoin:round;stroke-miterlimit:4;stroke-dasharray:none"
       id="path5189"
       cx="86.127602"
       cy="120.53529"
       r="3.1404169" />
    <circle
       style="fill:#2b0000;fill-rule:evenodd;stroke-width:1;stroke-linecap:round;stroke-linejoin:round;stroke-miterlimit:4;stroke-dasharray:none"
       id="path5189-2"
       cx="104.9033"
       cy="137.841"
       r="3.1404169" />
    <circle
       style="fill:#2b0000;fill-rule:evenodd;stroke-width:1;stroke-linecap:round;stroke-linejoin:round;stroke-miterlimit:4;stroke-dasharray:none"
       id="path5206"
       cx="87.908737"
       cy="136.46553"
       r="1.2027128" />
    <ellipse
       style="fill:#2b0000;fill-rule:evenodd;stroke-width:1;stroke-linecap:round;stroke-linejoin:round;stroke-miterlimit:4;stroke-dasharray:none"
       id="path5211"
       cx="76.639542"
       cy="137.32315"
       rx="0.10022607"
       ry="0.016704345" />
    <path
       style="fill:#d4aa00;fill-rule:evenodd;stroke-width:0.57141203;stroke-linecap:round;stroke-linejoin:round;stroke-miterlimit:4;stroke-dasharray:none"
       d="m 135.51144,77.901229 -0.67386,0.729151 -0.67335,0.72916 4.82451,4.45554 0.67335,-0.72915 0.67334,-0.72916 z"
       id="rect5126-9"
       inkscape:connector-curvature="0" />
    <path
       style="fill:#d4aa00;fill-rule:evenodd;stroke-width:0.57141203;stroke-linecap:round;stroke-linejoin:round;stroke-miterlimit:4;stroke-dasharray:none"
       d="m 131.54015,82.374194 -0.67386,0.729151 -0.67335,0.72916 4.82451,4.45554 0.67335,-0.72915 0.67334,-0.72916 z"
       id="rect5126-9-5"
       inkscape:connector-curvature="0" />
  </g>
</svg>
